<svg xmlns="http://www.w3.org/2000/svg" x="0px" y="0px" width="100" height="100" viewBox="0,0,256,256">
<g fill="#ffffff" fill-rule="nonzero" stroke="none" stroke-width="1" stroke-linecap="butt" stroke-linejoin="miter" stroke-miterlimit="10" stroke-dasharray="" stroke-dashoffset="0" font-family="none" font-weight="none" font-size="none" text-anchor="none" style="mix-blend-mode: normal"><g transform="scale(8.53333,8.53333)"><path d="M3.207,26.5l2.108,-2.107l-0.32,-0.353c-2.254,-2.488 -3.495,-5.698 -3.495,-9.04c0,-7.444 6.056,-13.5 13.5,-13.5c0.461,0 0.945,0.032 1.5,0.101v3.012c-0.507,-0.075 -1.01,-0.113 -1.5,-0.113c-5.79,0 -10.5,4.71 -10.5,10.5c0,2.516 0.918,4.955 2.584,6.868l0.352,0.404l2.064,-2.065v6.293z"></path><path d="M15,2c0.315,0 0.643,0.016 1,0.049v1.999c-0.337,-0.032 -0.671,-0.048 -1,-0.048c-6.065,0 -11,4.935 -11,11c0,2.636 0.961,5.192 2.707,7.196l0.704,0.808l0.758,-0.758l0.831,-0.832v4.586h-4.586l0.918,-0.918l0.673,-0.673l-0.639,-0.705c-2.171,-2.396 -3.366,-5.487 -3.366,-8.704c0,-7.168 5.832,-13 13,-13M15,1c-7.732,0 -14,6.268 -14,14c0,3.612 1.377,6.895 3.625,9.375l-2.625,2.625h8v-8l-2.539,2.539c-1.526,-1.752 -2.461,-4.031 -2.461,-6.539c0,-5.523 4.477,-10 10,-10c0.686,0 1.353,0.076 2,0.208v-4.043c-0.655,-0.097 -1.318,-0.165 -2,-0.165z"></path><g><path d="M15,28.5c-0.461,0 -0.945,-0.032 -1.5,-0.101v-3.012c0.507,0.075 1.01,0.113 1.5,0.113c5.79,0 10.5,-4.71 10.5,-10.5c0,-2.516 -0.918,-4.955 -2.584,-6.868l-0.352,-0.404l-2.064,2.065v-6.293h6.293l-2.108,2.107l0.32,0.353c2.254,2.488 3.495,5.698 3.495,9.04c0,7.444 -6.056,13.5 -13.5,13.5z"></path><path d="M25.586,4l-0.918,0.918l-0.673,0.673l0.639,0.705c2.171,2.396 3.366,5.487 3.366,8.704c0,7.168 -5.832,13 -13,13c-0.315,0 -0.643,-0.016 -1,-0.049v-1.999c0.337,0.032 0.671,0.048 1,0.048c6.065,0 11,-4.935 11,-11c0,-2.636 -0.961,-5.192 -2.707,-7.196l-0.703,-0.808l-0.758,0.758l-0.832,0.832v-4.586h4.586M28,3h-8v8l2.539,-2.539c1.526,1.752 2.461,4.031 2.461,6.539c0,5.523 -4.477,10 -10,10c-0.686,0 -1.353,-0.076 -2,-0.208v4.043c0.655,0.097 1.318,0.165 2,0.165c7.732,0 14,-6.268 14,-14c0,-3.612 -1.377,-6.895 -3.625,-9.375l2.625,-2.625z"></path></g></g></g>
</svg>